<?xml version="1.0" standalone="no"?>
<!DOCTYPE svg PUBLIC "-//W3C//DTD SVG 20010904//EN"
 "http://www.w3.org/TR/2001/REC-SVG-20010904/DTD/svg10.dtd">
<svg version="1.0" xmlns="http://www.w3.org/2000/svg"
 width="512.000000pt" height="512.000000pt" viewBox="0 0 512.000000 512.000000"
 preserveAspectRatio="xMidYMid meet">
<metadata>
Created by potrace 1.14, written by Peter Selinger 2001-2017
</metadata>
<g transform="translate(0.000000,512.000000) scale(0.100000,-0.100000)"
fill="#000000" stroke="none">
<path d="M2447 4994 c-1 -1 -38 -4 -82 -8 -379 -31 -779 -182 -1095 -414 -336
-247 -599 -590 -744 -970 -36 -94 -93 -285 -101 -337 -2 -16 -6 -41 -9 -55
-30 -158 -34 -226 -35 -701 l-1 -397 -55 -41 c-154 -116 -256 -276 -301 -471
-12 -54 -12 -230 1 -297 53 -277 256 -506 526 -592 35 -11 75 -22 88 -24 19
-3 27 -13 36 -50 17 -66 57 -122 112 -154 40 -23 59 -27 118 -27 46 0 81 6
102 17 l32 17 7 -37 c17 -97 102 -218 189 -269 105 -61 19 -57 1290 -59 638
-1 1185 2 1215 6 76 12 166 59 223 116 51 50 101 142 112 205 l7 37 30 -15
c73 -38 173 -27 245 26 43 32 93 116 93 157 0 18 8 24 43 33 225 57 379 163
490 337 88 138 120 248 121 418 0 145 -17 222 -80 350 -58 119 -173 248 -270
304 -9 4 -13 138 -17 476 -2 259 -7 479 -10 490 -2 11 -8 43 -11 70 -4 28 -11
68 -16 90 -5 22 -11 53 -14 69 -12 68 -62 229 -103 331 -242 605 -747 1074
-1368 1269 -87 28 -227 62 -290 71 -22 4 -51 8 -65 10 -67 12 -403 27 -413 19z
m-816 -521 c110 -39 235 -40 399 -2 69 15 145 31 170 34 25 3 59 8 75 11 72
12 401 19 490 9 54 -6 184 -24 220 -31 11 -2 31 -6 45 -9 35 -7 56 -11 134
-30 155 -37 367 5 476 93 l24 20 56 -35 c83 -53 185 -137 288 -237 359 -348
579 -815 618 -1313 5 -68 9 -664 5 -789 l-1 -30 -71 23 c-40 13 -80 23 -90 23
-14 0 -19 7 -19 28 0 15 -9 45 -19 67 -54 117 -190 169 -309 119 -19 -8 -35
-14 -36 -14 -1 0 -2 217 -1 483 1 518 -3 567 -49 660 -47 96 -171 192 -276
213 -50 10 -2326 11 -2384 1 -147 -25 -269 -133 -321 -282 -15 -45 -17 -104
-18 -562 0 -282 -1 -513 -3 -513 -1 0 -18 7 -39 16 -83 34 -187 14 -254 -49
-35 -34 -71 -104 -71 -140 0 -22 -18 -29 -165 -64 -20 -4 -20 0 -19 359 2 454
6 514 48 728 38 191 128 421 238 608 149 253 366 485 607 649 l74 51 52 -35
c29 -19 86 -46 126 -60z m2146 -824 c70 -27 145 -96 174 -161 l24 -53 1 -1476
c1 -1420 0 -1478 -18 -1527 -24 -65 -88 -136 -152 -170 l-51 -27 -972 -3
c-535 -1 -973 1 -974 5 -3 30 -3 3426 0 3429 3 2 435 4 960 3 929 0 957 -1
1008 -20z m-2808 -1329 c11 -5 30 -25 43 -42 l23 -33 0 -790 c0 -866 2 -837
-60 -875 -45 -28 -95 -28 -138 -2 -66 42 -63 -1 -63 874 1 748 2 795 19 821
39 61 114 80 176 47z m3315 -4 c14 -9 34 -28 43 -43 17 -25 18 -80 18 -828 0
-769 -1 -801 -19 -828 -40 -59 -119 -75 -181 -37 -62 38 -60 9 -60 876 0 743
1 792 18 818 40 61 123 80 181 42z"/>
<path d="M2705 2870 c-89 -22 -127 -36 -195 -73 -196 -107 -337 -287 -396
-507 -25 -92 -24 -271 0 -375 85 -355 421 -613 786 -604 112 3 188 19 288 61
359 149 555 543 461 923 -86 350 -418 602 -780 594 -52 -1 -125 -10 -164 -19z
m323 -514 c108 -83 207 -166 219 -185 28 -42 30 -95 3 -138 -17 -29 -370 -311
-426 -341 -57 -30 -127 -12 -170 44 l-29 37 0 306 c-1 168 2 322 6 341 15 70
102 119 172 97 15 -5 116 -77 225 -161z"/>
<path d="M2742 2408 c-9 -9 -12 -91 -12 -309 0 -300 2 -316 36 -315 17 1 382
284 394 305 13 25 24 16 -343 294 -54 41 -58 42 -75 25z"/>
</g>
</svg>
